<svg xmlns="http://www.w3.org/2000/svg" width="496" height="496" viewBox="0 0 496 496" version="1.1"><path d="M 181 137.981 C 175.875 139.003, 173 140.118, 173 141.085 C 173 141.554, 172.326 141.679, 171.503 141.363 C 170.679 141.047, 167.108 142.186, 163.566 143.894 C 160.024 145.602, 156.219 147, 155.111 147 C 154.003 147, 146.887 150.042, 139.298 153.759 C 131.709 157.477, 121.675 162.289, 117 164.453 C 112.325 166.617, 106.256 169.875, 103.513 171.694 C 100.771 173.512, 98.030 175, 97.422 175 C 94.360 175, 77.417 195.961, 75.437 202.198 C 75.088 203.298, 73.972 205.028, 72.957 206.043 C 71.942 207.058, 70.840 209.601, 70.509 211.694 C 70.177 213.787, 69.041 217.300, 67.984 219.500 C 64.994 225.720, 60.868 236.236, 60.333 239 C 60.067 240.375, 59.434 242.400, 58.927 243.500 C 57.515 246.560, 55.262 264.871, 55.604 270.500 C 56.938 292.425, 61.253 307.394, 67.998 313.498 C 69.099 314.495, 70 315.814, 70 316.430 C 70 317.776, 82.879 330.461, 88.500 334.651 C 95.308 339.725, 102.245 343.331, 108.500 345.046 C 114.628 346.725, 115.181 347.268, 117.897 354.265 C 119.511 358.423, 123.024 359.628, 129.035 358.088 C 133.058 357.056, 135.355 357.062, 141.245 358.116 C 156.719 360.887, 175.339 359.234, 192.084 353.604 C 198.672 351.389, 203.777 349.194, 222.500 340.530 C 225.250 339.257, 228.330 337.940, 229.345 337.603 C 230.360 337.266, 231.416 336.123, 231.693 335.064 C 231.970 334.005, 232.739 333.347, 233.402 333.601 C 234.065 333.855, 237.184 332.924, 240.332 331.532 C 243.481 330.139, 246.428 329, 246.882 329 C 247.336 329, 248.922 330.125, 250.405 331.500 C 253.673 334.528, 256.865 334.681, 260.306 331.974 C 263.829 329.203, 264.370 326.821, 262.496 322.335 C 260.549 317.677, 261.166 314.701, 264.381 313.236 C 265.717 312.627, 267.589 310.811, 268.541 309.200 C 269.492 307.589, 271.448 305.550, 272.886 304.668 C 277.580 301.789, 281.792 297.461, 283.977 293.269 C 285.826 289.721, 286.697 289.061, 290.310 288.469 C 296.641 287.431, 298.204 285.581, 297.408 280.065 C 297.046 277.554, 296.022 274.242, 295.132 272.705 C 293.633 270.112, 293.642 269.689, 295.262 266.866 C 296.223 265.192, 296.737 263.383, 296.404 262.845 C 296.072 262.307, 296.500 261.334, 297.356 260.683 C 299.132 259.332, 303.289 248.059, 304.908 240.201 C 305.509 237.286, 306 229.758, 306 223.471 C 306 210.445, 304.269 204, 300.769 204 C 299.117 204, 298.973 203.738, 299.966 202.541 C 300.709 201.646, 300.917 199.900, 300.505 198.025 C 299.524 193.555, 292.582 179.979, 289.504 176.508 C 286.937 173.612, 286.813 173.580, 285.675 175.508 C 284.630 177.280, 284.445 177.003, 284 173 C 283.568 169.116, 283.192 168.511, 281.250 168.579 C 279.560 168.639, 279 168.099, 279 166.409 C 279 163.863, 268.660 154, 265.992 154 C 265.106 154, 263.509 153.339, 262.441 152.532 C 261.374 151.724, 259.488 151.049, 258.250 151.032 C 256.947 151.013, 256 150.379, 256 149.523 C 256 146.187, 244.227 141.266, 233 139.910 C 228.875 139.412, 223.025 138.586, 220 138.075 C 213.683 137.008, 186.216 136.942, 181 137.981 M 224.441 142.433 C 222.943 143.538, 222.770 144.140, 223.683 145.065 C 225.329 146.736, 228 145.478, 228 143.031 C 228 140.632, 227.088 140.479, 224.441 142.433 M 215.663 154.437 C 214.670 157.025, 226.670 167.940, 228.956 166.527 C 230.789 165.394, 230.082 163.284, 227.250 161.434 C 225.738 160.446, 222.925 158.149, 221 156.328 C 217.069 152.609, 216.448 152.390, 215.663 154.437 M 299 161.142 C 292.133 162.089, 287 163.738, 287 164.999 C 287 167.578, 290.095 167.888, 304.826 166.785 C 322.753 165.443, 332.308 166.522, 343.637 171.166 C 351.806 174.516, 353.046 175.678, 355.517 182.297 C 357.496 187.600, 359.624 189.350, 362.282 187.862 C 364.088 186.851, 363.805 182.872, 361.740 180.250 C 361.038 179.359, 361.221 179, 362.378 179 C 363.270 179, 364 179.498, 364 180.107 C 364 180.716, 364.616 180.978, 365.369 180.688 C 366.123 180.399, 368.079 180.978, 369.717 181.974 C 371.355 182.970, 376.927 185.736, 382.098 188.121 C 399.437 196.117, 412.728 205.253, 417.786 212.655 L 420.072 216 413.536 216 C 407.733 216, 407 216.218, 407 217.941 C 407 220.245, 407.886 220.898, 411.671 221.384 C 413.227 221.583, 416.136 222.069, 418.135 222.463 C 420.429 222.915, 422.020 222.777, 422.444 222.090 C 424.185 219.273, 425.237 221.339, 435.383 247.500 C 442.802 266.629, 445.084 279.414, 443.097 290.715 C 442.538 293.897, 441.571 299.487, 440.948 303.137 C 440.193 307.565, 438.682 311.558, 436.407 315.137 C 434.532 318.087, 432.101 322.359, 431.005 324.631 C 429.908 326.903, 427.996 329.471, 426.756 330.337 C 425.515 331.203, 422.250 333.975, 419.500 336.497 C 414.761 340.844, 402.089 349.157, 393.609 353.482 C 391.472 354.572, 388.356 357.093, 386.684 359.084 C 383.836 362.476, 383.437 362.640, 380.337 361.689 C 377.968 360.962, 375.050 361.047, 370.053 361.990 C 365.200 362.906, 358.521 363.132, 348.115 362.732 C 331.947 362.110, 332 362.094, 332 367.532 C 332 370.900, 329.231 372.171, 325.781 370.387 C 323.401 369.156, 323 368.335, 323 364.697 C 323 362.358, 322.341 359.504, 321.536 358.355 C 319.752 355.808, 313.993 354.408, 312.832 356.238 C 312.252 357.151, 312.026 357.019, 312.015 355.764 C 311.994 353.336, 305.269 349.151, 296.814 346.304 C 292.880 344.979, 288.500 343.115, 287.081 342.162 C 285.661 341.208, 283.262 339.806, 281.750 339.045 C 280.238 338.284, 279 337.291, 279 336.837 C 279 336.383, 281.205 333.646, 283.899 330.756 C 298.770 314.805, 309.408 297.915, 314.508 282.162 C 315.961 277.673, 317.542 274, 318.020 274 C 318.499 274, 319.488 275.238, 320.219 276.750 C 321.386 279.168, 322.146 279.517, 326.523 279.639 C 335.429 279.888, 336 279.984, 336.036 281.250 C 336.088 283.027, 342.934 288, 345.329 288 C 346.433 288, 351.132 285.947, 355.772 283.439 C 363.154 279.447, 364.845 278.916, 369.303 279.189 C 373.880 279.468, 374.528 279.246, 375.684 277 C 376.392 275.625, 376.977 271.890, 376.985 268.700 C 376.994 265.410, 377.680 261.585, 378.572 259.860 C 380.762 255.627, 379.831 254, 375.220 254 C 372.673 254, 370.601 253.277, 369.075 251.855 C 365.786 248.791, 363.048 242.194, 363.022 237.273 C 362.994 231.866, 360.003 229.613, 353.062 229.771 C 348.759 229.869, 347.910 229.492, 344.441 225.940 C 340.060 221.453, 339.032 221.202, 336.500 224 C 335.505 225.100, 333.842 226, 332.805 226 C 330.341 226, 323 222.241, 323 220.980 C 323 220.441, 322.325 220, 321.500 220 C 319.494 220, 319.604 221.895, 321.750 224.317 C 323.033 225.765, 323.166 226.409, 322.250 226.729 C 321.563 226.970, 321 227.550, 321 228.018 C 321 228.487, 320.516 230.137, 319.925 231.685 L 318.849 234.500 317.460 232 C 315.802 229.016, 315.625 227.650, 317.007 228.504 C 318.868 229.654, 319.316 225.805, 317.650 222.984 C 316.742 221.448, 316 219.248, 316 218.096 C 316 215.314, 314.414 215.439, 312.491 218.373 C 310.261 221.777, 311.505 228.258, 315.134 232.143 C 317.991 235.201, 318.884 238.534, 317.017 239.167 C 316.476 239.350, 315.832 242.650, 315.587 246.500 C 315.341 250.350, 314.633 255.742, 314.013 258.483 C 313.394 261.224, 313.009 264.886, 313.159 266.621 C 313.308 268.357, 312.958 270.389, 312.380 271.138 C 311.803 271.887, 310.109 276.100, 308.616 280.500 C 304.904 291.438, 300.558 299.691, 293.750 308.731 C 290.587 312.931, 288 316.684, 288 317.073 C 288 318.516, 266.320 339.708, 261.500 342.977 C 258.750 344.842, 256.275 346.660, 256 347.017 C 254.928 348.408, 239.953 357, 238.600 357 C 237.812 357, 237.017 357.364, 236.833 357.809 C 236.135 359.504, 225.128 364.904, 216.334 367.867 C 204.819 371.746, 184.095 375.986, 176.374 376.044 C 173.143 376.068, 168.526 376.468, 166.113 376.934 C 163.613 377.417, 160.386 377.393, 158.613 376.879 C 156.901 376.383, 152.800 375.535, 149.500 374.994 C 146.200 374.454, 142.375 373.734, 141 373.395 C 139.625 373.055, 135.575 372.226, 132 371.551 C 122.189 369.700, 112.757 364.616, 95.313 351.777 C 87.799 346.247, 85.564 343.967, 83.044 339.258 C 79.770 333.140, 69 322.567, 69 325.471 C 69 327.719, 73.559 336.501, 78.101 343 C 81.476 347.829, 95.891 362, 97.429 362 C 97.743 362, 98 361.325, 98 360.500 C 98 359.675, 98.380 359, 98.845 359 C 99.967 359, 103.048 362.456, 104.424 365.257 C 106.750 369.991, 124.696 377.141, 143.799 380.945 C 157.512 383.675, 196.590 381.241, 201.064 377.378 C 201.961 376.602, 203.026 376.396, 203.564 376.894 C 205.054 378.274, 227.480 370.370, 232.809 366.586 C 233.529 366.075, 235.173 365.544, 236.461 365.407 C 237.750 365.270, 243.642 362.024, 249.555 358.193 L 260.305 351.230 266.902 355.609 C 284.814 367.498, 304.173 376.383, 310.116 375.442 C 313.242 374.947, 313.810 375.167, 314.306 377.063 C 314.757 378.787, 315.427 379.152, 317.440 378.767 C 318.848 378.498, 320 378.665, 320 379.139 C 320 379.612, 320.825 380, 321.833 380 C 322.842 380, 323.927 380.260, 324.245 380.579 C 325.004 381.338, 337.617 382.123, 352 382.308 C 389.507 382.788, 418.092 366.435, 432.952 335.996 C 434.696 332.423, 436.800 328.375, 437.627 327 C 446.116 312.896, 449.021 301.295, 448.942 281.803 C 448.878 265.783, 448.035 261.686, 441.061 243.500 C 432.390 220.888, 423.782 206.826, 413.516 198.500 C 408.305 194.275, 383.958 181, 381.418 181 C 380.259 181, 378.511 180.117, 377.534 179.038 C 375.295 176.564, 364.144 171.301, 359.224 170.396 C 357.176 170.020, 353.025 168.580, 350 167.197 C 340.232 162.730, 326.886 159.986, 315.605 160.123 C 310.047 160.191, 302.575 160.650, 299 161.142 M 189.200 163.200 C 188.540 163.860, 188 165.028, 188 165.796 C 188 166.563, 187.051 168.524, 185.891 170.153 C 183.574 173.407, 182.783 179.500, 184.678 179.500 C 186.839 179.500, 195 166.890, 195 163.550 C 195 161.688, 190.956 161.444, 189.200 163.200 M 262.874 178.543 C 262.118 179.492, 258.186 183.622, 254.136 187.721 C 247.615 194.322, 246.892 195.422, 247.818 197.337 C 248.394 198.527, 248.895 198.938, 248.932 198.250 C 248.970 197.563, 249.695 197, 250.545 197 C 251.395 197, 253.151 195.940, 254.446 194.645 C 255.741 193.350, 257.433 192.048, 258.205 191.751 C 258.978 191.455, 261.357 188.677, 263.491 185.578 C 267.009 180.470, 267.226 179.797, 265.810 178.381 C 264.394 176.965, 264.119 176.980, 262.874 178.543 M 300 182 C 300 183.100, 300.450 184, 301 184 C 301.550 184, 302 183.100, 302 182 C 302 180.900, 301.550 180, 301 180 C 300.450 180, 300 180.900, 300 182 M 321.750 184.750 C 319.413 185.280, 319.472 189.512, 321.841 191.193 C 322.972 191.996, 323.680 193.724, 323.675 195.671 C 323.665 199.363, 326.378 204, 328.548 204 C 330.477 204, 332.042 199.902, 331.275 196.857 C 330.949 195.561, 329.854 193.427, 328.841 192.115 C 327.828 190.803, 327 189.186, 327 188.520 C 327 186.666, 323.712 184.305, 321.750 184.750 M 125.104 186.914 C 122.745 188.409, 124.614 190.680, 129.601 192.380 C 135.296 194.320, 138.676 194.450, 139.269 192.750 C 140.129 190.285, 138.726 188.999, 135.143 188.968 C 133.139 188.951, 130.626 188.276, 129.559 187.468 C 127.309 185.767, 126.981 185.726, 125.104 186.914 M 189 205.500 C 185.235 208.278, 177.403 208.983, 175.125 206.750 C 174.102 205.746, 173.422 206.003, 171.675 208.054 C 167.867 212.525, 164.228 214.155, 157.658 214.333 L 151.500 214.500 151.821 217.704 C 152.338 222.874, 148.228 232.667, 144.119 236.054 C 142.153 237.674, 139.634 239.007, 138.522 239.015 C 134.517 239.046, 134.137 240.079, 135.592 247 C 136.344 250.575, 136.968 254.738, 136.979 256.250 C 136.991 257.762, 137.338 259.034, 137.750 259.077 C 138.162 259.119, 139.400 259.341, 140.500 259.570 C 141.600 259.799, 143.921 260.189, 145.658 260.436 C 148.865 260.892, 157.323 264.861, 162.154 268.178 C 165.566 270.520, 167.709 270.491, 168.471 268.092 C 169.320 265.416, 176.971 262.077, 183.917 261.351 C 189.459 260.772, 189.899 260.524, 191.986 256.812 C 194.691 251.998, 206.315 242.220, 209.825 241.804 C 212.020 241.544, 212.652 240.630, 214.183 235.500 C 215.999 229.413, 216.363 222.540, 215.111 218 C 214.591 216.116, 213.649 215.424, 211.284 215.192 C 208.314 214.901, 207.434 214.176, 198.750 204.874 C 196.356 202.311, 193.034 202.524, 189 205.500 M 309 203.949 C 309 206.016, 312.219 212.511, 312.664 211.342 C 313.342 209.563, 311.558 203.686, 310.204 203.235 C 309.542 203.014, 309 203.335, 309 203.949 M 375.804 209.626 C 370.978 211.126, 368.739 214.139, 370.869 216.269 C 372.176 217.576, 377.933 215.995, 382.823 212.986 C 389.138 209.099, 384.554 206.905, 375.804 209.626 M 183.462 217.430 C 179.507 218.092, 172.784 220.316, 168.119 222.505 C 161.468 225.626, 158.582 227.734, 153.625 233.088 C 147.434 239.774, 142 249.053, 142 252.937 C 142 255.946, 146.616 255.792, 147.573 252.750 C 148.530 249.708, 154.979 240.318, 159.126 235.927 C 164.071 230.692, 168.099 228.193, 176.102 225.397 C 186.008 221.936, 193.889 221.364, 202.343 223.491 C 209.387 225.264, 211.621 224.781, 210.453 221.737 C 209.678 219.718, 204.830 218, 199.910 218 C 197.824 218, 195.840 217.550, 195.500 217 C 194.761 215.804, 192.748 215.875, 183.462 217.430 M 263.323 217.601 C 262.557 219.597, 264.608 220.965, 268.400 220.985 C 269.995 220.993, 273.705 222.218, 276.644 223.706 C 280.756 225.788, 282.261 226.139, 283.170 225.230 C 284.976 223.424, 281.685 220.400, 275.326 218.021 C 268.755 215.562, 264.167 215.402, 263.323 217.601 M 92.767 219.750 C 90.012 222.876, 84.875 234.115, 85.192 236.327 C 85.825 240.751, 88.463 239.210, 91.265 232.778 C 92.770 229.325, 94 226.046, 94 225.491 C 94 224.935, 94.900 223.919, 96 223.232 C 98.398 221.734, 98.605 219.446, 96.418 218.607 C 94.338 217.809, 94.532 217.748, 92.767 219.750 M 329.885 231.750 C 329.821 232.162, 329.665 232.950, 329.537 233.500 C 329.409 234.050, 329.236 235.063, 329.152 235.750 C 329.064 236.478, 327.564 237, 325.559 237 C 323.666 237, 321.826 237.472, 321.470 238.049 C 321.113 238.626, 320.685 242.789, 320.518 247.299 C 319.903 263.912, 319.886 263.779, 323.266 268.575 C 325.009 271.048, 327.350 273.250, 328.468 273.470 C 329.585 273.689, 331.984 274.116, 333.797 274.419 C 335.611 274.721, 339.137 276.374, 341.634 278.092 L 346.174 281.216 352.955 278.090 C 356.684 276.371, 362.019 274.423, 364.809 273.760 C 368.456 272.893, 370.031 271.989, 370.409 270.545 C 371.718 265.539, 360.669 249.983, 351.839 244.402 C 349.826 243.129, 344.876 241.017, 340.839 239.708 C 335.213 237.883, 333.476 236.881, 333.398 235.414 C 333.191 231.519, 332.967 231, 331.500 231 C 330.675 231, 329.948 231.338, 329.885 231.750 M 408.543 238.931 C 408.226 239.443, 408.425 240.144, 408.984 240.490 C 409.543 240.835, 410 241.955, 410 242.978 C 410 244.001, 410.684 246.112, 411.520 247.669 C 412.356 249.226, 413.474 251.749, 414.005 253.276 C 415.954 258.880, 421.308 257.458, 420.697 251.498 C 420.024 244.935, 410.755 235.351, 408.543 238.931 M 246.667 244.667 C 246.300 245.033, 246 247.208, 246 249.500 C 246 251.791, 245.483 256.240, 244.852 259.385 C 243.573 265.752, 244.558 268.299, 247.255 265.602 C 248.673 264.184, 251 254.022, 251 249.250 C 251 244.961, 248.751 242.582, 246.667 244.667 M 204.355 259.517 C 203.346 262.146, 205.373 263.134, 211.107 262.807 C 215.731 262.544, 216.500 262.215, 216.500 260.500 C 216.500 258.766, 215.733 258.460, 210.738 258.200 C 206.167 257.962, 204.848 258.234, 204.355 259.517 M 394.500 259.209 C 392.123 260.574, 387 265.885, 387 266.983 C 387 267.408, 387.590 268.245, 388.311 268.843 C 389.294 269.659, 390.909 269.127, 394.773 266.715 C 400.223 263.314, 401.294 261.930, 400.362 259.500 C 399.681 257.727, 397.287 257.609, 394.500 259.209 M 76.250 265.927 C 73.912 268.552, 72 271.393, 72 272.242 C 72 274.538, 75.193 275.407, 76.307 273.416 C 76.820 272.500, 78.986 269.896, 81.121 267.629 C 85.226 263.271, 85.569 261.610, 82.422 261.328 C 81.253 261.223, 78.834 263.026, 76.250 265.927 M 430.667 271.667 C 429.516 272.817, 429.938 274, 431.500 274 C 432.325 274, 433 273.325, 433 272.500 C 433 270.938, 431.817 270.516, 430.667 271.667 M 143.600 275.898 C 140.018 279.566, 139.514 282, 142.336 282 C 144.393 282, 150.163 276.083, 149.822 274.324 C 149.260 271.429, 147.538 271.865, 143.600 275.898 M 420 278.260 C 420 279.586, 422.060 282.737, 424.990 285.890 C 429.184 290.405, 430.221 291.062, 431.490 290.008 C 433.849 288.051, 433.321 286.239, 428.843 280.929 C 424.193 275.414, 420 274.148, 420 278.260 M 249.500 280 C 249.160 280.550, 249.584 281, 250.441 281 C 251.298 281, 252 280.550, 252 280 C 252 279.450, 251.577 279, 251.059 279 C 250.541 279, 249.840 279.450, 249.500 280 M 105.500 287.533 C 103.850 288.885, 102.130 289.992, 101.679 289.995 C 100.315 290.003, 98 292.756, 98 294.370 C 98 296.751, 99.881 297.308, 102.384 295.668 C 103.647 294.841, 105.989 294.014, 107.590 293.832 C 110.251 293.528, 110.500 293.165, 110.500 289.586 C 110.500 284.796, 109.396 284.343, 105.500 287.533 M 315.690 289.154 C 313.593 290.327, 313.500 293.340, 315.509 295.007 C 316.339 295.696, 317.295 297.993, 317.634 300.111 C 318.389 304.836, 320.338 306.794, 322.500 305 C 324.666 303.202, 324.349 298.148, 321.762 293.265 C 319.253 288.527, 318.147 287.778, 315.690 289.154 M 236.190 299.327 C 231.579 306.290, 231.234 307.492, 233.590 308.396 C 235.720 309.214, 236.388 308.697, 239.874 303.531 C 243.118 298.725, 243.881 296.187, 242.666 294.250 C 241.342 292.138, 240.529 292.776, 236.190 299.327 M 364.080 298.404 C 363.067 299.624, 363.507 301.082, 366.508 306.447 C 370.299 313.227, 372.997 314.781, 374.847 311.250 C 375.929 309.184, 375.110 306.971, 371.239 301.505 C 368.110 297.086, 365.950 296.151, 364.080 298.404 M 395.494 299.009 C 393.515 302.211, 401.082 308.918, 406.217 308.514 C 409.145 308.284, 411.678 306, 409.005 306 C 408.366 306, 406.061 304.200, 403.883 302 C 400.036 298.115, 396.768 296.949, 395.494 299.009 M 172.667 302.667 C 170.994 304.339, 172.182 306, 175.050 306 C 178.625 306, 182.733 307.942, 185.407 310.898 C 188.019 313.784, 191 313.665, 191 310.674 C 191 307.843, 187.675 304.671, 183.101 303.139 C 179.350 301.882, 173.706 301.627, 172.667 302.667 M 333 313.644 C 326.829 314.671, 325.873 315.199, 324.329 318.435 C 323.442 320.296, 322.991 322.534, 323.327 323.409 C 324.229 325.760, 326.888 325.341, 328.111 322.655 C 328.931 320.855, 330.610 319.984, 335.340 318.905 C 340.365 317.759, 341.500 317.131, 341.500 315.500 C 341.500 313.407, 338.442 312.739, 333 313.644 M 376.500 314 C 375.771 315.180, 376.717 317, 378.059 317 C 378.577 317, 379 316.100, 379 315 C 379 312.891, 377.545 312.309, 376.500 314 M 112 323.835 C 108.962 324.284, 107.500 324.987, 107.500 326 C 107.500 328.137, 133.792 329.554, 135.867 327.529 C 137.018 326.405, 136.896 326.015, 135.088 325.047 C 132.497 323.660, 118.245 322.912, 112 323.835 M 160 327.441 C 160 329.334, 161.432 330.155, 163.410 329.396 C 165.946 328.423, 165.296 326, 162.500 326 C 160.990 326, 160 326.571, 160 327.441 M 295.362 331.500 C 294.081 334.837, 295.638 335.617, 303.934 335.794 C 310.638 335.936, 312.186 335.679, 312.700 334.339 C 313.765 331.564, 310.188 330, 302.777 330 C 297.620 330, 295.796 330.369, 295.362 331.500 M 382.211 332.919 C 374.488 333.460, 372.081 334.454, 372.015 337.128 C 371.960 339.383, 375.116 339.936, 382.596 338.979 C 390.824 337.928, 398.549 338.492, 400.826 340.312 C 401.789 341.081, 402.401 340.978, 403.061 339.936 C 404.351 337.897, 404.213 337, 402.608 337 C 401.843 337, 400.934 335.875, 400.589 334.500 C 399.893 331.724, 399.610 331.700, 382.211 332.919" stroke="none" fill="#fbfafa" fill-rule="evenodd"/><path d="M 0 248.002 L 0 496.004 248.250 495.752 L 496.500 495.500 496.752 247.750 L 497.004 0 248.502 0 L 0 0 0 248.002 M 0.492 248.500 C 0.492 384.900, 0.608 440.551, 0.750 372.170 C 0.892 303.788, 0.892 192.188, 0.750 124.170 C 0.608 56.151, 0.492 112.100, 0.492 248.500 M 181 137.981 C 175.875 139.003, 173 140.118, 173 141.085 C 173 141.554, 172.326 141.679, 171.503 141.363 C 170.679 141.047, 167.108 142.186, 163.566 143.894 C 160.024 145.602, 156.219 147, 155.111 147 C 154.003 147, 146.887 150.042, 139.298 153.759 C 131.709 157.477, 121.675 162.289, 117 164.453 C 112.325 166.617, 106.256 169.875, 103.513 171.694 C 100.771 173.512, 98.030 175, 97.422 175 C 94.360 175, 77.417 195.961, 75.437 202.198 C 75.088 203.298, 73.972 205.028, 72.957 206.043 C 71.942 207.058, 70.840 209.601, 70.509 211.694 C 70.177 213.787, 69.041 217.300, 67.984 219.500 C 64.994 225.720, 60.868 236.236, 60.333 239 C 60.067 240.375, 59.434 242.400, 58.927 243.500 C 57.515 246.560, 55.262 264.871, 55.604 270.500 C 56.938 292.425, 61.253 307.394, 67.998 313.498 C 69.099 314.495, 70 315.814, 70 316.430 C 70 317.776, 82.879 330.461, 88.500 334.651 C 95.308 339.725, 102.245 343.331, 108.500 345.046 C 114.628 346.725, 115.181 347.268, 117.897 354.265 C 119.511 358.423, 123.024 359.628, 129.035 358.088 C 133.058 357.056, 135.355 357.062, 141.245 358.116 C 156.719 360.887, 175.339 359.234, 192.084 353.604 C 198.672 351.389, 203.777 349.194, 222.500 340.530 C 225.250 339.257, 228.330 337.940, 229.345 337.603 C 230.360 337.266, 231.416 336.123, 231.693 335.064 C 231.970 334.005, 232.739 333.347, 233.402 333.601 C 234.065 333.855, 237.184 332.924, 240.332 331.532 C 243.481 330.139, 246.428 329, 246.882 329 C 247.336 329, 248.922 330.125, 250.405 331.500 C 253.673 334.528, 256.865 334.681, 260.306 331.974 C 263.829 329.203, 264.370 326.821, 262.496 322.335 C 260.549 317.677, 261.166 314.701, 264.381 313.236 C 265.717 312.627, 267.589 310.811, 268.541 309.200 C 269.492 307.589, 271.448 305.550, 272.886 304.668 C 277.580 301.789, 281.792 297.461, 283.977 293.269 C 285.826 289.721, 286.697 289.061, 290.310 288.469 C 296.641 287.431, 298.204 285.581, 297.408 280.065 C 297.046 277.554, 296.022 274.242, 295.132 272.705 C 293.633 270.112, 293.642 269.689, 295.262 266.866 C 296.223 265.192, 296.737 263.383, 296.404 262.845 C 296.072 262.307, 296.500 261.334, 297.356 260.683 C 299.132 259.332, 303.289 248.059, 304.908 240.201 C 305.509 237.286, 306 229.758, 306 223.471 C 306 210.445, 304.269 204, 300.769 204 C 299.117 204, 298.973 203.738, 299.966 202.541 C 300.709 201.646, 300.917 199.900, 300.505 198.025 C 299.524 193.555, 292.582 179.979, 289.504 176.508 C 286.937 173.612, 286.813 173.580, 285.675 175.508 C 284.630 177.280, 284.445 177.003, 284 173 C 283.568 169.116, 283.192 168.511, 281.250 168.579 C 279.560 168.639, 279 168.099, 279 166.409 C 279 163.863, 268.660 154, 265.992 154 C 265.106 154, 263.509 153.339, 262.441 152.532 C 261.374 151.724, 259.488 151.049, 258.250 151.032 C 256.947 151.013, 256 150.379, 256 149.523 C 256 146.187, 244.227 141.266, 233 139.910 C 228.875 139.412, 223.025 138.586, 220 138.075 C 213.683 137.008, 186.216 136.942, 181 137.981 M 224.441 142.433 C 222.943 143.538, 222.770 144.140, 223.683 145.065 C 225.329 146.736, 228 145.478, 228 143.031 C 228 140.632, 227.088 140.479, 224.441 142.433 M 215.663 154.437 C 214.670 157.025, 226.670 167.940, 228.956 166.527 C 230.789 165.394, 230.082 163.284, 227.250 161.434 C 225.738 160.446, 222.925 158.149, 221 156.328 C 217.069 152.609, 216.448 152.390, 215.663 154.437 M 299 161.142 C 292.133 162.089, 287 163.738, 287 164.999 C 287 167.578, 290.095 167.888, 304.826 166.785 C 322.753 165.443, 332.308 166.522, 343.637 171.166 C 351.806 174.516, 353.046 175.678, 355.517 182.297 C 357.496 187.600, 359.624 189.350, 362.282 187.862 C 364.088 186.851, 363.805 182.872, 361.740 180.250 C 361.038 179.359, 361.221 179, 362.378 179 C 363.270 179, 364 179.498, 364 180.107 C 364 180.716, 364.616 180.978, 365.369 180.688 C 366.123 180.399, 368.079 180.978, 369.717 181.974 C 371.355 182.970, 376.927 185.736, 382.098 188.121 C 399.437 196.117, 412.728 205.253, 417.786 212.655 L 420.072 216 413.536 216 C 407.733 216, 407 216.218, 407 217.941 C 407 220.245, 407.886 220.898, 411.671 221.384 C 413.227 221.583, 416.136 222.069, 418.135 222.463 C 420.429 222.915, 422.020 222.777, 422.444 222.090 C 424.185 219.273, 425.237 221.339, 435.383 247.500 C 442.802 266.629, 445.084 279.414, 443.097 290.715 C 442.538 293.897, 441.571 299.487, 440.948 303.137 C 440.193 307.565, 438.682 311.558, 436.407 315.137 C 434.532 318.087, 432.101 322.359, 431.005 324.631 C 429.908 326.903, 427.996 329.471, 426.756 330.337 C 425.515 331.203, 422.250 333.975, 419.500 336.497 C 414.761 340.844, 402.089 349.157, 393.609 353.482 C 391.472 354.572, 388.356 357.093, 386.684 359.084 C 383.836 362.476, 383.437 362.640, 380.337 361.689 C 377.968 360.962, 375.050 361.047, 370.053 361.990 C 365.200 362.906, 358.521 363.132, 348.115 362.732 C 331.947 362.110, 332 362.094, 332 367.532 C 332 370.900, 329.231 372.171, 325.781 370.387 C 323.401 369.156, 323 368.335, 323 364.697 C 323 362.358, 322.341 359.504, 321.536 358.355 C 319.752 355.808, 313.993 354.408, 312.832 356.238 C 312.252 357.151, 312.026 357.019, 312.015 355.764 C 311.994 353.336, 305.269 349.151, 296.814 346.304 C 292.880 344.979, 288.500 343.115, 287.081 342.162 C 285.661 341.208, 283.262 339.806, 281.750 339.045 C 280.238 338.284, 279 337.291, 279 336.837 C 279 336.383, 281.205 333.646, 283.899 330.756 C 298.770 314.805, 309.408 297.915, 314.508 282.162 C 315.961 277.673, 317.542 274, 318.020 274 C 318.499 274, 319.488 275.238, 320.219 276.750 C 321.386 279.168, 322.146 279.517, 326.523 279.639 C 335.429 279.888, 336 279.984, 336.036 281.250 C 336.088 283.027, 342.934 288, 345.329 288 C 346.433 288, 351.132 285.947, 355.772 283.439 C 363.154 279.447, 364.845 278.916, 369.303 279.189 C 373.880 279.468, 374.528 279.246, 375.684 277 C 376.392 275.625, 376.977 271.890, 376.985 268.700 C 376.994 265.410, 377.680 261.585, 378.572 259.860 C 380.762 255.627, 379.831 254, 375.220 254 C 372.673 254, 370.601 253.277, 369.075 251.855 C 365.786 248.791, 363.048 242.194, 363.022 237.273 C 362.994 231.866, 360.003 229.613, 353.062 229.771 C 348.759 229.869, 347.910 229.492, 344.441 225.940 C 340.060 221.453, 339.032 221.202, 336.500 224 C 335.505 225.100, 333.842 226, 332.805 226 C 330.341 226, 323 222.241, 323 220.980 C 323 220.441, 322.325 220, 321.500 220 C 319.494 220, 319.604 221.895, 321.750 224.317 C 323.033 225.765, 323.166 226.409, 322.250 226.729 C 321.563 226.970, 321 227.550, 321 228.018 C 321 228.487, 320.516 230.137, 319.925 231.685 L 318.849 234.500 317.460 232 C 315.802 229.016, 315.625 227.650, 317.007 228.504 C 318.868 229.654, 319.316 225.805, 317.650 222.984 C 316.742 221.448, 316 219.248, 316 218.096 C 316 215.314, 314.414 215.439, 312.491 218.373 C 310.261 221.777, 311.505 228.258, 315.134 232.143 C 317.991 235.201, 318.884 238.534, 317.017 239.167 C 316.476 239.350, 315.832 242.650, 315.587 246.500 C 315.341 250.350, 314.633 255.742, 314.013 258.483 C 313.394 261.224, 313.009 264.886, 313.159 266.621 C 313.308 268.357, 312.958 270.389, 312.380 271.138 C 311.803 271.887, 310.109 276.100, 308.616 280.500 C 304.904 291.438, 300.558 299.691, 293.750 308.731 C 290.587 312.931, 288 316.684, 288 317.073 C 288 318.516, 266.320 339.708, 261.500 342.977 C 258.750 344.842, 256.275 346.660, 256 347.017 C 254.928 348.408, 239.953 357, 238.600 357 C 237.812 357, 237.017 357.364, 236.833 357.809 C 236.135 359.504, 225.128 364.904, 216.334 367.867 C 204.819 371.746, 184.095 375.986, 176.374 376.044 C 173.143 376.068, 168.526 376.468, 166.113 376.934 C 163.613 377.417, 160.386 377.393, 158.613 376.879 C 156.901 376.383, 152.800 375.535, 149.500 374.994 C 146.200 374.454, 142.375 373.734, 141 373.395 C 139.625 373.055, 135.575 372.226, 132 371.551 C 122.189 369.700, 112.757 364.616, 95.313 351.777 C 87.799 346.247, 85.564 343.967, 83.044 339.258 C 79.770 333.140, 69 322.567, 69 325.471 C 69 327.719, 73.559 336.501, 78.101 343 C 81.476 347.829, 95.891 362, 97.429 362 C 97.743 362, 98 361.325, 98 360.500 C 98 359.675, 98.380 359, 98.845 359 C 99.967 359, 103.048 362.456, 104.424 365.257 C 106.750 369.991, 124.696 377.141, 143.799 380.945 C 157.512 383.675, 196.590 381.241, 201.064 377.378 C 201.961 376.602, 203.026 376.396, 203.564 376.894 C 205.054 378.274, 227.480 370.370, 232.809 366.586 C 233.529 366.075, 235.173 365.544, 236.461 365.407 C 237.750 365.270, 243.642 362.024, 249.555 358.193 L 260.305 351.230 266.902 355.609 C 284.814 367.498, 304.173 376.383, 310.116 375.442 C 313.242 374.947, 313.810 375.167, 314.306 377.063 C 314.757 378.787, 315.427 379.152, 317.440 378.767 C 318.848 378.498, 320 378.665, 320 379.139 C 320 379.612, 320.825 380, 321.833 380 C 322.842 380, 323.927 380.260, 324.245 380.579 C 325.004 381.338, 337.617 382.123, 352 382.308 C 389.507 382.788, 418.092 366.435, 432.952 335.996 C 434.696 332.423, 436.800 328.375, 437.627 327 C 446.116 312.896, 449.021 301.295, 448.942 281.803 C 448.878 265.783, 448.035 261.686, 441.061 243.500 C 432.390 220.888, 423.782 206.826, 413.516 198.500 C 408.305 194.275, 383.958 181, 381.418 181 C 380.259 181, 378.511 180.117, 377.534 179.038 C 375.295 176.564, 364.144 171.301, 359.224 170.396 C 357.176 170.020, 353.025 168.580, 350 167.197 C 340.232 162.730, 326.886 159.986, 315.605 160.123 C 310.047 160.191, 302.575 160.650, 299 161.142 M 189.200 163.200 C 188.540 163.860, 188 165.028, 188 165.796 C 188 166.563, 187.051 168.524, 185.891 170.153 C 183.574 173.407, 182.783 179.500, 184.678 179.500 C 186.839 179.500, 195 166.890, 195 163.550 C 195 161.688, 190.956 161.444, 189.200 163.200 M 262.874 178.543 C 262.118 179.492, 258.186 183.622, 254.136 187.721 C 247.615 194.322, 246.892 195.422, 247.818 197.337 C 248.394 198.527, 248.895 198.938, 248.932 198.250 C 248.970 197.563, 249.695 197, 250.545 197 C 251.395 197, 253.151 195.940, 254.446 194.645 C 255.741 193.350, 257.433 192.048, 258.205 191.751 C 258.978 191.455, 261.357 188.677, 263.491 185.578 C 267.009 180.470, 267.226 179.797, 265.810 178.381 C 264.394 176.965, 264.119 176.980, 262.874 178.543 M 300 182 C 300 183.100, 300.450 184, 301 184 C 301.550 184, 302 183.100, 302 182 C 302 180.900, 301.550 180, 301 180 C 300.450 180, 300 180.900, 300 182 M 321.750 184.750 C 319.413 185.280, 319.472 189.512, 321.841 191.193 C 322.972 191.996, 323.680 193.724, 323.675 195.671 C 323.665 199.363, 326.378 204, 328.548 204 C 330.477 204, 332.042 199.902, 331.275 196.857 C 330.949 195.561, 329.854 193.427, 328.841 192.115 C 327.828 190.803, 327 189.186, 327 188.520 C 327 186.666, 323.712 184.305, 321.750 184.750 M 125.104 186.914 C 122.745 188.409, 124.614 190.680, 129.601 192.380 C 135.296 194.320, 138.676 194.450, 139.269 192.750 C 140.129 190.285, 138.726 188.999, 135.143 188.968 C 133.139 188.951, 130.626 188.276, 129.559 187.468 C 127.309 185.767, 126.981 185.726, 125.104 186.914 M 189 205.500 C 185.235 208.278, 177.403 208.983, 175.125 206.750 C 174.102 205.746, 173.422 206.003, 171.675 208.054 C 167.867 212.525, 164.228 214.155, 157.658 214.333 L 151.500 214.500 151.821 217.704 C 152.338 222.874, 148.228 232.667, 144.119 236.054 C 142.153 237.674, 139.634 239.007, 138.522 239.015 C 134.517 239.046, 134.137 240.079, 135.592 247 C 136.344 250.575, 136.968 254.738, 136.979 256.250 C 136.991 257.762, 137.338 259.034, 137.750 259.077 C 138.162 259.119, 139.400 259.341, 140.500 259.570 C 141.600 259.799, 143.921 260.189, 145.658 260.436 C 148.865 260.892, 157.323 264.861, 162.154 268.178 C 165.566 270.520, 167.709 270.491, 168.471 268.092 C 169.320 265.416, 176.971 262.077, 183.917 261.351 C 189.459 260.772, 189.899 260.524, 191.986 256.812 C 194.691 251.998, 206.315 242.220, 209.825 241.804 C 212.020 241.544, 212.652 240.630, 214.183 235.500 C 215.999 229.413, 216.363 222.540, 215.111 218 C 214.591 216.116, 213.649 215.424, 211.284 215.192 C 208.314 214.901, 207.434 214.176, 198.750 204.874 C 196.356 202.311, 193.034 202.524, 189 205.500 M 309 203.949 C 309 206.016, 312.219 212.511, 312.664 211.342 C 313.342 209.563, 311.558 203.686, 310.204 203.235 C 309.542 203.014, 309 203.335, 309 203.949 M 375.804 209.626 C 370.978 211.126, 368.739 214.139, 370.869 216.269 C 372.176 217.576, 377.933 215.995, 382.823 212.986 C 389.138 209.099, 384.554 206.905, 375.804 209.626 M 183.462 217.430 C 179.507 218.092, 172.784 220.316, 168.119 222.505 C 161.468 225.626, 158.582 227.734, 153.625 233.088 C 147.434 239.774, 142 249.053, 142 252.937 C 142 255.946, 146.616 255.792, 147.573 252.750 C 148.530 249.708, 154.979 240.318, 159.126 235.927 C 164.071 230.692, 168.099 228.193, 176.102 225.397 C 186.008 221.936, 193.889 221.364, 202.343 223.491 C 209.387 225.264, 211.621 224.781, 210.453 221.737 C 209.678 219.718, 204.830 218, 199.910 218 C 197.824 218, 195.840 217.550, 195.500 217 C 194.761 215.804, 192.748 215.875, 183.462 217.430 M 263.323 217.601 C 262.557 219.597, 264.608 220.965, 268.400 220.985 C 269.995 220.993, 273.705 222.218, 276.644 223.706 C 280.756 225.788, 282.261 226.139, 283.170 225.230 C 284.976 223.424, 281.685 220.400, 275.326 218.021 C 268.755 215.562, 264.167 215.402, 263.323 217.601 M 92.767 219.750 C 90.012 222.876, 84.875 234.115, 85.192 236.327 C 85.825 240.751, 88.463 239.210, 91.265 232.778 C 92.770 229.325, 94 226.046, 94 225.491 C 94 224.935, 94.900 223.919, 96 223.232 C 98.398 221.734, 98.605 219.446, 96.418 218.607 C 94.338 217.809, 94.532 217.748, 92.767 219.750 M 329.885 231.750 C 329.821 232.162, 329.665 232.950, 329.537 233.500 C 329.409 234.050, 329.236 235.063, 329.152 235.750 C 329.064 236.478, 327.564 237, 325.559 237 C 323.666 237, 321.826 237.472, 321.470 238.049 C 321.113 238.626, 320.685 242.789, 320.518 247.299 C 319.903 263.912, 319.886 263.779, 323.266 268.575 C 325.009 271.048, 327.350 273.250, 328.468 273.470 C 329.585 273.689, 331.984 274.116, 333.797 274.419 C 335.611 274.721, 339.137 276.374, 341.634 278.092 L 346.174 281.216 352.955 278.090 C 356.684 276.371, 362.019 274.423, 364.809 273.760 C 368.456 272.893, 370.031 271.989, 370.409 270.545 C 371.718 265.539, 360.669 249.983, 351.839 244.402 C 349.826 243.129, 344.876 241.017, 340.839 239.708 C 335.213 237.883, 333.476 236.881, 333.398 235.414 C 333.191 231.519, 332.967 231, 331.500 231 C 330.675 231, 329.948 231.338, 329.885 231.750 M 408.543 238.931 C 408.226 239.443, 408.425 240.144, 408.984 240.490 C 409.543 240.835, 410 241.955, 410 242.978 C 410 244.001, 410.684 246.112, 411.520 247.669 C 412.356 249.226, 413.474 251.749, 414.005 253.276 C 415.954 258.880, 421.308 257.458, 420.697 251.498 C 420.024 244.935, 410.755 235.351, 408.543 238.931 M 246.667 244.667 C 246.300 245.033, 246 247.208, 246 249.500 C 246 251.791, 245.483 256.240, 244.852 259.385 C 243.573 265.752, 244.558 268.299, 247.255 265.602 C 248.673 264.184, 251 254.022, 251 249.250 C 251 244.961, 248.751 242.582, 246.667 244.667 M 204.355 259.517 C 203.346 262.146, 205.373 263.134, 211.107 262.807 C 215.731 262.544, 216.500 262.215, 216.500 260.500 C 216.500 258.766, 215.733 258.460, 210.738 258.200 C 206.167 257.962, 204.848 258.234, 204.355 259.517 M 394.500 259.209 C 392.123 260.574, 387 265.885, 387 266.983 C 387 267.408, 387.590 268.245, 388.311 268.843 C 389.294 269.659, 390.909 269.127, 394.773 266.715 C 400.223 263.314, 401.294 261.930, 400.362 259.500 C 399.681 257.727, 397.287 257.609, 394.500 259.209 M 76.250 265.927 C 73.912 268.552, 72 271.393, 72 272.242 C 72 274.538, 75.193 275.407, 76.307 273.416 C 76.820 272.500, 78.986 269.896, 81.121 267.629 C 85.226 263.271, 85.569 261.610, 82.422 261.328 C 81.253 261.223, 78.834 263.026, 76.250 265.927 M 430.667 271.667 C 429.516 272.817, 429.938 274, 431.500 274 C 432.325 274, 433 273.325, 433 272.500 C 433 270.938, 431.817 270.516, 430.667 271.667 M 143.600 275.898 C 140.018 279.566, 139.514 282, 142.336 282 C 144.393 282, 150.163 276.083, 149.822 274.324 C 149.260 271.429, 147.538 271.865, 143.600 275.898 M 420 278.260 C 420 279.586, 422.060 282.737, 424.990 285.890 C 429.184 290.405, 430.221 291.062, 431.490 290.008 C 433.849 288.051, 433.321 286.239, 428.843 280.929 C 424.193 275.414, 420 274.148, 420 278.260 M 249.500 280 C 249.160 280.550, 249.584 281, 250.441 281 C 251.298 281, 252 280.550, 252 280 C 252 279.450, 251.577 279, 251.059 279 C 250.541 279, 249.840 279.450, 249.500 280 M 105.500 287.533 C 103.850 288.885, 102.130 289.992, 101.679 289.995 C 100.315 290.003, 98 292.756, 98 294.370 C 98 296.751, 99.881 297.308, 102.384 295.668 C 103.647 294.841, 105.989 294.014, 107.590 293.832 C 110.251 293.528, 110.500 293.165, 110.500 289.586 C 110.500 284.796, 109.396 284.343, 105.500 287.533 M 315.690 289.154 C 313.593 290.327, 313.500 293.340, 315.509 295.007 C 316.339 295.696, 317.295 297.993, 317.634 300.111 C 318.389 304.836, 320.338 306.794, 322.500 305 C 324.666 303.202, 324.349 298.148, 321.762 293.265 C 319.253 288.527, 318.147 287.778, 315.690 289.154 M 236.190 299.327 C 231.579 306.290, 231.234 307.492, 233.590 308.396 C 235.720 309.214, 236.388 308.697, 239.874 303.531 C 243.118 298.725, 243.881 296.187, 242.666 294.250 C 241.342 292.138, 240.529 292.776, 236.190 299.327 M 364.080 298.404 C 363.067 299.624, 363.507 301.082, 366.508 306.447 C 370.299 313.227, 372.997 314.781, 374.847 311.250 C 375.929 309.184, 375.110 306.971, 371.239 301.505 C 368.110 297.086, 365.950 296.151, 364.080 298.404 M 395.494 299.009 C 393.515 302.211, 401.082 308.918, 406.217 308.514 C 409.145 308.284, 411.678 306, 409.005 306 C 408.366 306, 406.061 304.200, 403.883 302 C 400.036 298.115, 396.768 296.949, 395.494 299.009 M 172.667 302.667 C 170.994 304.339, 172.182 306, 175.050 306 C 178.625 306, 182.733 307.942, 185.407 310.898 C 188.019 313.784, 191 313.665, 191 310.674 C 191 307.843, 187.675 304.671, 183.101 303.139 C 179.350 301.882, 173.706 301.627, 172.667 302.667 M 333 313.644 C 326.829 314.671, 325.873 315.199, 324.329 318.435 C 323.442 320.296, 322.991 322.534, 323.327 323.409 C 324.229 325.760, 326.888 325.341, 328.111 322.655 C 328.931 320.855, 330.610 319.984, 335.340 318.905 C 340.365 317.759, 341.500 317.131, 341.500 315.500 C 341.500 313.407, 338.442 312.739, 333 313.644 M 376.500 314 C 375.771 315.180, 376.717 317, 378.059 317 C 378.577 317, 379 316.100, 379 315 C 379 312.891, 377.545 312.309, 376.500 314 M 112 323.835 C 108.962 324.284, 107.500 324.987, 107.500 326 C 107.500 328.137, 133.792 329.554, 135.867 327.529 C 137.018 326.405, 136.896 326.015, 135.088 325.047 C 132.497 323.660, 118.245 322.912, 112 323.835 M 160 327.441 C 160 329.334, 161.432 330.155, 163.410 329.396 C 165.946 328.423, 165.296 326, 162.500 326 C 160.990 326, 160 326.571, 160 327.441 M 295.362 331.500 C 294.081 334.837, 295.638 335.617, 303.934 335.794 C 310.638 335.936, 312.186 335.679, 312.700 334.339 C 313.765 331.564, 310.188 330, 302.777 330 C 297.620 330, 295.796 330.369, 295.362 331.500 M 382.211 332.919 C 374.488 333.460, 372.081 334.454, 372.015 337.128 C 371.960 339.383, 375.116 339.936, 382.596 338.979 C 390.824 337.928, 398.549 338.492, 400.826 340.312 C 401.789 341.081, 402.401 340.978, 403.061 339.936 C 404.351 337.897, 404.213 337, 402.608 337 C 401.843 337, 400.934 335.875, 400.589 334.500 C 399.893 331.724, 399.610 331.700, 382.211 332.919" stroke="none" fill="#edc4d4" fill-rule="evenodd"/></svg>